<svg width="483" height="175" viewBox="0 0 483 175" fill="none" xmlns="http://www.w3.org/2000/svg">
<path d="M0 81.3V30.8H24V81.3C24 102.563 41.237 119.8 62.5 119.8C83.763 119.8 101 102.563 101 81.3V46.8323H125V81.3C125 115.818 97.0178 143.8 62.5 143.8C27.9822 143.8 0 115.818 0 81.3Z" fill="currentColor"/>
<rect x="71" y="17" width="30" height="30" fill="currentColor"/>
<rect x="47" y="47" width="24" height="24" fill="currentColor"/>
<path d="M200.08 138.92C192.741 138.92 186.277 137.427 180.688 134.44C175.141 131.453 170.789 127.251 167.632 121.832C164.517 116.413 162.96 110.056 162.96 102.76V44.968L178.576 44.84V102.376C178.576 105.832 179.152 108.925 180.304 111.656C181.499 114.387 183.099 116.712 185.104 118.632C187.109 120.509 189.413 121.939 192.016 122.92C194.619 123.901 197.307 124.392 200.08 124.392C202.939 124.392 205.648 123.901 208.208 122.92C210.811 121.896 213.115 120.445 215.12 118.568C217.125 116.648 218.704 114.323 219.856 111.592C221.008 108.861 221.584 105.789 221.584 102.376V44.84H237.2V102.76C237.2 110.056 235.621 116.413 232.464 121.832C229.349 127.251 224.997 131.453 219.408 134.44C213.861 137.427 207.419 138.92 200.08 138.92ZM302.893 137V103.72C302.893 101.544 302.744 99.1333 302.445 96.488C302.146 93.8427 301.442 91.304 300.333 88.872C299.266 86.3973 297.645 84.3707 295.469 82.792C293.336 81.2133 290.434 80.424 286.765 80.424C284.802 80.424 282.861 80.744 280.941 81.384C279.021 82.024 277.272 83.1333 275.693 84.712C274.157 86.248 272.92 88.3813 271.981 91.112C271.042 93.8 270.573 97.256 270.573 101.48L261.421 97.576C261.421 91.688 262.552 86.3547 264.813 81.576C267.117 76.7973 270.488 73 274.925 70.184C279.362 67.3253 284.824 65.896 291.309 65.896C296.429 65.896 300.653 66.7493 303.981 68.456C307.309 70.1627 309.954 72.3387 311.917 74.984C313.88 77.6293 315.33 80.4453 316.269 83.432C317.208 86.4187 317.805 89.256 318.061 91.944C318.36 94.5893 318.509 96.744 318.509 98.408V137H302.893ZM254.957 137V67.88H268.717V89.32H270.573V137H254.957ZM336.49 57.384V43.24H351.914V57.384H336.49ZM336.49 137V67.88H351.914V137H336.49ZM377.101 137V66.792C377.101 65.0427 377.165 63.1227 377.293 61.032C377.421 58.8987 377.784 56.7867 378.381 54.696C378.978 52.6053 380.066 50.7067 381.645 49C383.608 46.824 385.72 45.3307 387.981 44.52C390.285 43.6667 392.546 43.1973 394.765 43.112C396.984 42.984 398.925 42.92 400.589 42.92H409.229V55.464H401.229C398.285 55.464 396.088 56.2107 394.637 57.704C393.229 59.1547 392.525 61.0747 392.525 63.464V137H377.101ZM365.965 79.976V67.88H409.229V79.976H365.965ZM428.548 167.72L441.86 131.176L442.116 141.928L411.972 67.88H428.036L449.412 122.664H445.316L466.116 67.88H481.54L443.012 167.72H428.548Z" fill="currentColor"/>
</svg>
